STARTFONT 2.1
FONT -FontForge-Glass TTY VT220-Medium-R-Normal--12-70-120-120-C-60-ISO10646-1
SIZE 7 120 120
FONTBOUNDINGBOX 6 12 0 -2
COMMENT "Generated by fontforge, http://fontforge.sourceforge.net"
COMMENT "Created by svo with FontForge 2.0 (http://fontforge.sf.net)"
COMMENT ""
COMMENT "Use font size 15 on Windows"
COMMENT "Use font size 20 on Mac/Linux "
STARTPROPERTIES 41
FOUNDRY "FontForge"
FAMILY_NAME "Glass TTY VT220"
WEIGHT_NAME "Medium"
SLANT "R"
SETWIDTH_NAME "Normal"
ADD_STYLE_NAME ""
PIXEL_SIZE 12
POINT_SIZE 70
RESOLUTION_X 120
RESOLUTION_Y 120
SPACING "C"
AVERAGE_WIDTH 60
CHARSET_REGISTRY "ISO10646"
CHARSET_ENCODING "1"
FONTNAME_REGISTRY ""
CHARSET_COLLECTIONS "ISO8859-5 ISO10646-1"
FONT_NAME "Glass_TTY_VT220"
FACE_NAME "VT220"
COPYRIGHT "Created by svo with FontForge 2.0 (http://fontforge.sf.net)"
FONT_VERSION "001.3"
FONT_ASCENT 10
FONT_DESCENT 2
UNDERLINE_POSITION -1
UNDERLINE_THICKNESS 1
X_HEIGHT 5
CAP_HEIGHT 5
DEFAULT_CHAR 1
RAW_ASCENT 800
RAW_DESCENT 200
NORM_SPACE 6
RELATIVE_WEIGHT 50
RELATIVE_SETWIDTH 50
SUPERSCRIPT_X 0
SUPERSCRIPT_Y 5
SUPERSCRIPT_SIZE 8
SUBSCRIPT_X 0
SUBSCRIPT_Y 1
SUBSCRIPT_SIZE 8
FIGURE_WIDTH 6
AVG_LOWERCASE_WIDTH 60
AVG_UPPERCASE_WIDTH 60
ENDPROPERTIES
CHARS 323
STARTCHAR uni0000
ENCODING 0
SWIDTH 500 0
DWIDTH 6 0
BBX 2 3 1 3
BITMAP
80
40
40
ENDCHAR
STARTCHAR uni0001
ENCODING 1
SWIDTH 500 0
DWIDTH 6 0
BBX 5 3 0 3
BITMAP
70
F8
70
ENDCHAR
STARTCHAR uni0002
ENCODING 2
SWIDTH 500 0
DWIDTH 6 0
BBX 5 3 0 3
BITMAP
A8
50
A8
ENDCHAR
STARTCHAR uni0003
ENCODING 3
SWIDTH 500 0
DWIDTH 6 0
BBX 5 8 0 -2
BITMAP
E0
A0
F8
00
00
00
30
30
ENDCHAR
STARTCHAR uni0004
ENCODING 4
SWIDTH 500 0
DWIDTH 6 0
BBX 5 8 0 -2
BITMAP
C0
80
B8
00
00
00
20
20
ENDCHAR
STARTCHAR uni0005
ENCODING 5
SWIDTH 500 0
DWIDTH 6 0
BBX 5 8 0 -2
BITMAP
80
80
70
00
00
00
28
28
ENDCHAR
STARTCHAR uni0006
ENCODING 6
SWIDTH 500 0
DWIDTH 6 0
BBX 5 8 0 -2
BITMAP
80
80
F8
00
00
00
20
20
ENDCHAR
STARTCHAR uni0007
ENCODING 7
SWIDTH 500 0
DWIDTH 6 0
BBX 3 1 1 5
BITMAP
E0
ENDCHAR
STARTCHAR uni0008
ENCODING 8
SWIDTH 500 0
DWIDTH 6 0
BBX 5 3 0 3
BITMAP
20
F8
20
ENDCHAR
STARTCHAR uni0009
ENCODING 9
SWIDTH 500 0
DWIDTH 6 0
BBX 5 8 0 -2
BITMAP
F0
B0
B0
00
00
00
20
38
ENDCHAR
STARTCHAR uni000A
ENCODING 10
SWIDTH 500 0
DWIDTH 6 0
BBX 4 8 1 -2
BITMAP
C0
C0
F0
00
00
00
60
60
ENDCHAR
STARTCHAR uni000B
ENCODING 11
SWIDTH 500 0
DWIDTH 6 0
BBX 3 6 0 4
BITMAP
20
00
00
00
20
E0
ENDCHAR
STARTCHAR uni000C
ENCODING 12
SWIDTH 500 0
DWIDTH 6 0
BBX 3 7 0 -2
BITMAP
E0
20
00
00
00
20
20
ENDCHAR
STARTCHAR uni000D
ENCODING 13
SWIDTH 500 0
DWIDTH 6 0
BBX 3 7 2 -2
BITMAP
E0
80
00
00
00
80
80
ENDCHAR
STARTCHAR uni000E
ENCODING 14
SWIDTH 500 0
DWIDTH 6 0
BBX 3 6 2 4
BITMAP
80
00
00
00
80
E0
ENDCHAR
STARTCHAR uni000F
ENCODING 15
SWIDTH 500 0
DWIDTH 6 0
BBX 5 12 0 -2
BITMAP
20
00
00
00
20
F8
20
00
00
00
20
20
ENDCHAR
STARTCHAR uni0010
ENCODING 16
SWIDTH 500 0
DWIDTH 6 0
BBX 5 1 0 9
BITMAP
F8
ENDCHAR
STARTCHAR uni0011
ENCODING 17
SWIDTH 500 0
DWIDTH 6 0
BBX 1 1 4 6
BITMAP
00
ENDCHAR
STARTCHAR uni0012
ENCODING 18
SWIDTH 500 0
DWIDTH 6 0
BBX 5 1 0 4
BITMAP
F8
ENDCHAR
STARTCHAR uni0013
ENCODING 19
SWIDTH 500 0
DWIDTH 6 0
BBX 1 1 4 2
BITMAP
00
ENDCHAR
STARTCHAR uni0014
ENCODING 20
SWIDTH 500 0
DWIDTH 6 0
BBX 5 1 0 -1
BITMAP
F8
ENDCHAR
STARTCHAR uni0015
ENCODING 21
SWIDTH 500 0
DWIDTH 6 0
BBX 3 12 2 -2
BITMAP
80
00
00
00
80
E0
80
00
00
00
80
80
ENDCHAR
STARTCHAR uni0016
ENCODING 22
SWIDTH 500 0
DWIDTH 6 0
BBX 3 12 0 -2
BITMAP
20
00
00
00
20
E0
20
00
00
00
20
20
ENDCHAR
STARTCHAR uni0017
ENCODING 23
SWIDTH 500 0
DWIDTH 6 0
BBX 5 6 0 4
BITMAP
20
00
00
00
20
F8
ENDCHAR
STARTCHAR uni0018
ENCODING 24
SWIDTH 500 0
DWIDTH 6 0
BBX 5 7 0 -2
BITMAP
F8
20
00
00
00
20
20
ENDCHAR
STARTCHAR uni0019
ENCODING 25
SWIDTH 500 0
DWIDTH 6 0
BBX 1 12 2 -2
BITMAP
80
00
00
00
80
80
80
00
00
00
80
80
ENDCHAR
STARTCHAR uni001A
ENCODING 26
SWIDTH 500 0
DWIDTH 6 0
BBX 5 7 0 -1
BITMAP
40
80
40
00
00
00
F8
ENDCHAR
STARTCHAR uni001B
ENCODING 27
SWIDTH 500 0
DWIDTH 6 0
BBX 5 7 0 -1
BITMAP
30
08
30
00
00
00
F8
ENDCHAR
STARTCHAR uni001C
ENCODING 28
SWIDTH 500 0
DWIDTH 6 0
BBX 5 3 0 3
BITMAP
F8
50
50
ENDCHAR
STARTCHAR uni001D
ENCODING 29
SWIDTH 500 0
DWIDTH 6 0
BBX 5 3 0 3
BITMAP
F8
20
F8
ENDCHAR
STARTCHAR uni001E
ENCODING 30
SWIDTH 500 0
DWIDTH 6 0
BBX 4 7 0 -1
BITMAP
40
F0
40
00
00
00
40
ENDCHAR
STARTCHAR uni001F
ENCODING 31
SWIDTH 500 0
DWIDTH 6 0
BBX 1 1 2 4
BITMAP
80
ENDCHAR
STARTCHAR space
ENCODING 32
SWIDTH 500 0
DWIDTH 6 0
BBX 1 1 0 0
BITMAP
00
ENDCHAR
STARTCHAR exclam
ENCODING 33
SWIDTH 500 0
DWIDTH 6 0
BBX 1 3 2 3
BITMAP
80
80
80
ENDCHAR
STARTCHAR quotedbl
ENCODING 34
SWIDTH 500 0
DWIDTH 6 0
BBX 3 1 1 5
BITMAP
E0
ENDCHAR
STARTCHAR numbersign
ENCODING 35
SWIDTH 500 0
DWIDTH 6 0
BBX 4 3 0 3
BITMAP
F0
70
F0
ENDCHAR
STARTCHAR dollar
ENCODING 36
SWIDTH 500 0
DWIDTH 6 0
BBX 5 3 0 3
BITMAP
A0
70
28
ENDCHAR
STARTCHAR percent
ENCODING 37
SWIDTH 500 0
DWIDTH 6 0
BBX 3 3 1 3
BITMAP
E0
40
A0
ENDCHAR
STARTCHAR ampersand
ENCODING 38
SWIDTH 500 0
DWIDTH 6 0
BBX 5 3 0 3
BITMAP
B0
60
B8
ENDCHAR
STARTCHAR quotesingle
ENCODING 39
SWIDTH 500 0
DWIDTH 6 0
BBX 1 1 1 5
BITMAP
80
ENDCHAR
STARTCHAR parenleft
ENCODING 40
SWIDTH 500 0
DWIDTH 6 0
BBX 1 3 1 3
BITMAP
80
80
80
ENDCHAR
STARTCHAR parenright
ENCODING 41
SWIDTH 500 0
DWIDTH 6 0
BBX 2 3 2 3
BITMAP
C0
C0
C0
ENDCHAR
STARTCHAR asterisk
ENCODING 42
SWIDTH 500 0
DWIDTH 6 0
BBX 5 3 0 3
BITMAP
70
F8
70
ENDCHAR
STARTCHAR plus
ENCODING 43
SWIDTH 500 0
DWIDTH 6 0
BBX 5 3 0 3
BITMAP
20
F8
20
ENDCHAR
STARTCHAR comma
ENCODING 44
SWIDTH 500 0
DWIDTH 6 0
BBX 1 1 1 -1
BITMAP
80
ENDCHAR
STARTCHAR hyphen
ENCODING 45
SWIDTH 500 0
DWIDTH 6 0
BBX 5 1 0 4
BITMAP
F8
ENDCHAR
STARTCHAR period
ENCODING 46
SWIDTH 500 0
DWIDTH 6 0
BBX 1 1 2 1
BITMAP
00
ENDCHAR
STARTCHAR slash
ENCODING 47
SWIDTH 500 0
DWIDTH 6 0
BBX 3 3 1 3
BITMAP
60
40
80
ENDCHAR
STARTCHAR zero
ENCODING 48
SWIDTH 500 0
DWIDTH 6 0
BBX 5 3 0 3
BITMAP
88
88
88
ENDCHAR
STARTCHAR one
ENCODING 49
SWIDTH 500 0
DWIDTH 6 0
BBX 2 3 1 3
BITMAP
C0
40
40
ENDCHAR
STARTCHAR two
ENCODING 50
SWIDTH 500 0
DWIDTH 6 0
BBX 4 3 1 3
BITMAP
10
60
80
ENDCHAR
STARTCHAR three
ENCODING 51
SWIDTH 500 0
DWIDTH 6 0
BBX 3 3 2 3
BITMAP
C0
C0
20
ENDCHAR
STARTCHAR four
ENCODING 52
SWIDTH 500 0
DWIDTH 6 0
BBX 5 3 0 3
BITMAP
70
70
F8
ENDCHAR
STARTCHAR five
ENCODING 53
SWIDTH 500 0
DWIDTH 6 0
BBX 5 3 0 3
BITMAP
F0
C8
08
ENDCHAR
STARTCHAR six
ENCODING 54
SWIDTH 500 0
DWIDTH 6 0
BBX 5 3 0 3
BITMAP
80
F0
C8
ENDCHAR
STARTCHAR seven
ENCODING 55
SWIDTH 500 0
DWIDTH 6 0
BBX 2 3 2 3
BITMAP
40
C0
80
ENDCHAR
STARTCHAR eight
ENCODING 56
SWIDTH 500 0
DWIDTH 6 0
BBX 5 3 0 3
BITMAP
88
70
88
ENDCHAR
STARTCHAR nine
ENCODING 57
SWIDTH 500 0
DWIDTH 6 0
BBX 5 3 0 3
BITMAP
98
78
08
ENDCHAR
STARTCHAR colon
ENCODING 58
SWIDTH 500 0
DWIDTH 6 0
BBX 2 1 1 5
BITMAP
C0
ENDCHAR
STARTCHAR semicolon
ENCODING 59
SWIDTH 500 0
DWIDTH 6 0
BBX 2 7 1 -1
BITMAP
C0
00
00
00
00
00
80
ENDCHAR
STARTCHAR less
ENCODING 60
SWIDTH 500 0
DWIDTH 6 0
BBX 2 3 0 3
BITMAP
40
80
40
ENDCHAR
STARTCHAR equal
ENCODING 61
SWIDTH 500 0
DWIDTH 6 0
BBX 5 3 0 3
BITMAP
F8
00
F8
ENDCHAR
STARTCHAR greater
ENCODING 62
SWIDTH 500 0
DWIDTH 6 0
BBX 3 3 2 3
BITMAP
C0
20
C0
ENDCHAR
STARTCHAR question
ENCODING 63
SWIDTH 500 0
DWIDTH 6 0
BBX 2 3 2 3
BITMAP
C0
80
80
ENDCHAR
STARTCHAR at
ENCODING 64
SWIDTH 500 0
DWIDTH 6 0
BBX 5 3 0 3
BITMAP
B8
D8
B8
ENDCHAR
STARTCHAR A
ENCODING 65
SWIDTH 500 0
DWIDTH 6 0
BBX 5 3 0 3
BITMAP
50
88
F8
ENDCHAR
STARTCHAR B
ENCODING 66
SWIDTH 500 0
DWIDTH 6 0
BBX 4 3 1 3
BITMAP
90
E0
90
ENDCHAR
STARTCHAR C
ENCODING 67
SWIDTH 500 0
DWIDTH 6 0
BBX 1 3 0 3
BITMAP
80
80
80
ENDCHAR
STARTCHAR D
ENCODING 68
SWIDTH 500 0
DWIDTH 6 0
BBX 4 3 1 3
BITMAP
90
90
90
ENDCHAR
STARTCHAR E
ENCODING 69
SWIDTH 500 0
DWIDTH 6 0
BBX 4 3 0 3
BITMAP
80
F0
80
ENDCHAR
STARTCHAR F
ENCODING 70
SWIDTH 500 0
DWIDTH 6 0
BBX 4 3 0 3
BITMAP
80
F0
80
ENDCHAR
STARTCHAR G
ENCODING 71
SWIDTH 500 0
DWIDTH 6 0
BBX 5 3 0 3
BITMAP
80
80
B8
ENDCHAR
STARTCHAR H
ENCODING 72
SWIDTH 500 0
DWIDTH 6 0
BBX 5 3 0 3
BITMAP
88
F8
88
ENDCHAR
STARTCHAR I
ENCODING 73
SWIDTH 500 0
DWIDTH 6 0
BBX 1 3 2 3
BITMAP
80
80
80
ENDCHAR
STARTCHAR J
ENCODING 74
SWIDTH 500 0
DWIDTH 6 0
BBX 1 3 3 3
BITMAP
80
80
80
ENDCHAR
STARTCHAR K
ENCODING 75
SWIDTH 500 0
DWIDTH 6 0
BBX 3 3 0 3
BITMAP
E0
C0
E0
ENDCHAR
STARTCHAR L
ENCODING 76
SWIDTH 500 0
DWIDTH 6 0
BBX 1 3 0 3
BITMAP
80
80
80
ENDCHAR
STARTCHAR M
ENCODING 77
SWIDTH 500 0
DWIDTH 6 0
BBX 5 3 0 3
BITMAP
F8
A8
88
ENDCHAR
STARTCHAR N
ENCODING 78
SWIDTH 500 0
DWIDTH 6 0
BBX 5 3 0 3
BITMAP
C8
A8
B8
ENDCHAR
STARTCHAR O
ENCODING 79
SWIDTH 500 0
DWIDTH 6 0
BBX 5 3 0 3
BITMAP
88
88
88
ENDCHAR
STARTCHAR P
ENCODING 80
SWIDTH 500 0
DWIDTH 6 0
BBX 5 3 0 3
BITMAP
88
F0
80
ENDCHAR
STARTCHAR Q
ENCODING 81
SWIDTH 500 0
DWIDTH 6 0
BBX 5 3 0 3
BITMAP
88
88
B8
ENDCHAR
STARTCHAR R
ENCODING 82
SWIDTH 500 0
DWIDTH 6 0
BBX 5 3 0 3
BITMAP
88
F0
B0
ENDCHAR
STARTCHAR S
ENCODING 83
SWIDTH 500 0
DWIDTH 6 0
BBX 5 3 0 3
BITMAP
80
70
08
ENDCHAR
STARTCHAR T
ENCODING 84
SWIDTH 500 0
DWIDTH 6 0
BBX 1 3 2 3
BITMAP
80
80
80
ENDCHAR
STARTCHAR U
ENCODING 85
SWIDTH 500 0
DWIDTH 6 0
BBX 5 3 0 3
BITMAP
88
88
88
ENDCHAR
STARTCHAR V
ENCODING 86
SWIDTH 500 0
DWIDTH 6 0
BBX 3 3 1 3
BITMAP
A0
A0
E0
ENDCHAR
STARTCHAR W
ENCODING 87
SWIDTH 500 0
DWIDTH 6 0
BBX 5 3 0 3
BITMAP
88
A8
A8
ENDCHAR
STARTCHAR X
ENCODING 88
SWIDTH 500 0
DWIDTH 6 0
BBX 3 3 1 3
BITMAP
E0
40
E0
ENDCHAR
STARTCHAR Y
ENCODING 89
SWIDTH 500 0
DWIDTH 6 0
BBX 3 3 1 3
BITMAP
E0
40
40
ENDCHAR
STARTCHAR Z
ENCODING 90
SWIDTH 500 0
DWIDTH 6 0
BBX 3 3 1 3
BITMAP
60
40
80
ENDCHAR
STARTCHAR bracketleft
ENCODING 91
SWIDTH 500 0
DWIDTH 6 0
BBX 1 3 1 3
BITMAP
80
80
80
ENDCHAR
STARTCHAR backslash
ENCODING 92
SWIDTH 500 0
DWIDTH 6 0
BBX 3 3 1 3
BITMAP
80
40
60
ENDCHAR
STARTCHAR bracketright
ENCODING 93
SWIDTH 500 0
DWIDTH 6 0
BBX 2 3 2 3
BITMAP
C0
C0
C0
ENDCHAR
STARTCHAR asciicircum
ENCODING 94
SWIDTH 500 0
DWIDTH 6 0
BBX 5 2 0 4
BITMAP
50
88
ENDCHAR
STARTCHAR underscore
ENCODING 95
SWIDTH 500 0
DWIDTH 6 0
BBX 1 1 4 0
BITMAP
00
ENDCHAR
STARTCHAR grave
ENCODING 96
SWIDTH 500 0
DWIDTH 6 0
BBX 2 1 2 5
BITMAP
C0
ENDCHAR
STARTCHAR a
ENCODING 97
SWIDTH 500 0
DWIDTH 6 0
BBX 4 3 1 3
BITMAP
E0
10
F0
ENDCHAR
STARTCHAR b
ENCODING 98
SWIDTH 500 0
DWIDTH 6 0
BBX 5 3 0 3
BITMAP
F0
C8
88
ENDCHAR
STARTCHAR c
ENCODING 99
SWIDTH 500 0
DWIDTH 6 0
BBX 5 3 0 3
BITMAP
70
88
80
ENDCHAR
STARTCHAR d
ENCODING 100
SWIDTH 500 0
DWIDTH 6 0
BBX 5 3 0 3
BITMAP
78
98
88
ENDCHAR
STARTCHAR e
ENCODING 101
SWIDTH 500 0
DWIDTH 6 0
BBX 5 3 0 3
BITMAP
70
88
F8
ENDCHAR
STARTCHAR f
ENCODING 102
SWIDTH 500 0
DWIDTH 6 0
BBX 4 3 0 3
BITMAP
40
F0
40
ENDCHAR
STARTCHAR g
ENCODING 103
SWIDTH 500 0
DWIDTH 6 0
BBX 5 8 0 -2
BITMAP
78
90
70
00
00
00
88
70
ENDCHAR
STARTCHAR h
ENCODING 104
SWIDTH 500 0
DWIDTH 6 0
BBX 5 3 0 3
BITMAP
F0
C8
88
ENDCHAR
STARTCHAR i
ENCODING 105
SWIDTH 500 0
DWIDTH 6 0
BBX 2 3 1 3
BITMAP
C0
40
40
ENDCHAR
STARTCHAR j
ENCODING 106
SWIDTH 500 0
DWIDTH 6 0
BBX 4 8 0 -2
BITMAP
10
10
10
00
00
00
90
70
ENDCHAR
STARTCHAR k
ENCODING 107
SWIDTH 500 0
DWIDTH 6 0
BBX 4 3 0 3
BITMAP
B0
A0
C0
ENDCHAR
STARTCHAR l
ENCODING 108
SWIDTH 500 0
DWIDTH 6 0
BBX 1 3 2 3
BITMAP
80
80
80
ENDCHAR
STARTCHAR m
ENCODING 109
SWIDTH 500 0
DWIDTH 6 0
BBX 5 3 0 3
BITMAP
D0
F8
A8
ENDCHAR
STARTCHAR n
ENCODING 110
SWIDTH 500 0
DWIDTH 6 0
BBX 5 3 0 3
BITMAP
F0
C8
88
ENDCHAR
STARTCHAR o
ENCODING 111
SWIDTH 500 0
DWIDTH 6 0
BBX 5 3 0 3
BITMAP
70
88
88
ENDCHAR
STARTCHAR p
ENCODING 112
SWIDTH 500 0
DWIDTH 6 0
BBX 5 8 0 -2
BITMAP
F0
C8
C8
00
00
00
80
80
ENDCHAR
STARTCHAR q
ENCODING 113
SWIDTH 500 0
DWIDTH 6 0
BBX 5 8 0 -2
BITMAP
78
98
98
00
00
00
08
08
ENDCHAR
STARTCHAR r
ENCODING 114
SWIDTH 500 0
DWIDTH 6 0
BBX 5 3 0 3
BITMAP
B0
48
40
ENDCHAR
STARTCHAR s
ENCODING 115
SWIDTH 500 0
DWIDTH 6 0
BBX 4 3 0 3
BITMAP
70
80
70
ENDCHAR
STARTCHAR t
ENCODING 116
SWIDTH 500 0
DWIDTH 6 0
BBX 4 3 0 3
BITMAP
F0
40
40
ENDCHAR
STARTCHAR u
ENCODING 117
SWIDTH 500 0
DWIDTH 6 0
BBX 4 3 0 3
BITMAP
90
90
90
ENDCHAR
STARTCHAR v
ENCODING 118
SWIDTH 500 0
DWIDTH 6 0
BBX 5 3 0 3
BITMAP
88
88
50
ENDCHAR
STARTCHAR w
ENCODING 119
SWIDTH 500 0
DWIDTH 6 0
BBX 5 3 0 3
BITMAP
88
88
A8
ENDCHAR
STARTCHAR x
ENCODING 120
SWIDTH 500 0
DWIDTH 6 0
BBX 4 3 0 3
BITMAP
90
70
60
ENDCHAR
STARTCHAR y
ENCODING 121
SWIDTH 500 0
DWIDTH 6 0
BBX 4 8 0 -2
BITMAP
90
90
B0
00
00
00
90
70
ENDCHAR
STARTCHAR z
ENCODING 122
SWIDTH 500 0
DWIDTH 6 0
BBX 5 3 0 3
BITMAP
F8
10
30
ENDCHAR
STARTCHAR braceleft
ENCODING 123
SWIDTH 500 0
DWIDTH 6 0
BBX 3 3 1 3
BITMAP
60
C0
60
ENDCHAR
STARTCHAR bar
ENCODING 124
SWIDTH 500 0
DWIDTH 6 0
BBX 1 3 2 3
BITMAP
80
80
80
ENDCHAR
STARTCHAR braceright
ENCODING 125
SWIDTH 500 0
DWIDTH 6 0
BBX 3 3 1 3
BITMAP
80
60
80
ENDCHAR
STARTCHAR asciitilde
ENCODING 126
SWIDTH 500 0
DWIDTH 6 0
BBX 4 1 0 5
BITMAP
B0
ENDCHAR
STARTCHAR uni007F
ENCODING 127
SWIDTH 500 0
DWIDTH 6 0
BBX 3 8 0 -2
BITMAP
A0
A0
E0
00
00
00
40
40
ENDCHAR
STARTCHAR uni0080
ENCODING 128
SWIDTH 500 0
DWIDTH 6 0
BBX 5 8 0 -2
BITMAP
40
A0
70
00
00
00
28
30
ENDCHAR
STARTCHAR uni0081
ENCODING 129
SWIDTH 500 0
DWIDTH 6 0
BBX 5 8 0 -2
BITMAP
40
A0
50
00
00
00
10
38
ENDCHAR
STARTCHAR uni0082
ENCODING 130
SWIDTH 500 0
DWIDTH 6 0
BBX 5 8 0 -2
BITMAP
40
A0
70
00
00
00
30
38
ENDCHAR
STARTCHAR uni0083
ENCODING 131
SWIDTH 500 0
DWIDTH 6 0
BBX 5 8 0 -2
BITMAP
40
A0
78
00
00
00
08
30
ENDCHAR
STARTCHAR uni0084
ENCODING 132
SWIDTH 500 0
DWIDTH 6 0
BBX 5 8 0 -2
BITMAP
40
A0
50
00
00
00
78
10
ENDCHAR
STARTCHAR uni0085
ENCODING 133
SWIDTH 500 0
DWIDTH 6 0
BBX 5 8 0 -2
BITMAP
40
A0
78
00
00
00
08
30
ENDCHAR
STARTCHAR uni0086
ENCODING 134
SWIDTH 500 0
DWIDTH 6 0
BBX 5 8 0 -2
BITMAP
40
A0
58
00
00
00
28
30
ENDCHAR
STARTCHAR uni0087
ENCODING 135
SWIDTH 500 0
DWIDTH 6 0
BBX 5 8 0 -2
BITMAP
40
A0
78
00
00
00
30
30
ENDCHAR
STARTCHAR uni0088
ENCODING 136
SWIDTH 500 0
DWIDTH 6 0
BBX 5 8 0 -2
BITMAP
40
A0
70
00
00
00
28
30
ENDCHAR
STARTCHAR uni0089
ENCODING 137
SWIDTH 500 0
DWIDTH 6 0
BBX 4 8 0 -2
BITMAP
40
A0
70
00
00
00
10
30
ENDCHAR
STARTCHAR uni008A
ENCODING 138
SWIDTH 500 0
DWIDTH 6 0
BBX 5 8 0 -2
BITMAP
40
A0
70
00
00
00
28
28
ENDCHAR
STARTCHAR uni008B
ENCODING 139
SWIDTH 500 0
DWIDTH 6 0
BBX 5 8 0 -2
BITMAP
40
A0
70
00
00
00
28
30
ENDCHAR
STARTCHAR uni008C
ENCODING 140
SWIDTH 500 0
DWIDTH 6 0
BBX 5 8 0 -2
BITMAP
40
A0
78
00
00
00
20
38
ENDCHAR
STARTCHAR uni008D
ENCODING 141
SWIDTH 500 0
DWIDTH 6 0
BBX 5 8 0 -2
BITMAP
40
A0
70
00
00
00
28
30
ENDCHAR
STARTCHAR uni008E
ENCODING 142
SWIDTH 500 0
DWIDTH 6 0
BBX 5 8 0 -2
BITMAP
40
A0
78
00
00
00
20
38
ENDCHAR
STARTCHAR uni008F
ENCODING 143
SWIDTH 500 0
DWIDTH 6 0
BBX 5 8 0 -2
BITMAP
40
A0
78
00
00
00
20
20
ENDCHAR
STARTCHAR uni0090
ENCODING 144
SWIDTH 500 0
DWIDTH 6 0
BBX 5 8 0 -2
BITMAP
60
40
F0
00
00
00
28
30
ENDCHAR
STARTCHAR uni0091
ENCODING 145
SWIDTH 500 0
DWIDTH 6 0
BBX 5 8 0 -2
BITMAP
60
40
D0
00
00
00
10
38
ENDCHAR
STARTCHAR uni0092
ENCODING 146
SWIDTH 500 0
DWIDTH 6 0
BBX 5 8 0 -2
BITMAP
60
40
F0
00
00
00
30
38
ENDCHAR
STARTCHAR uni0093
ENCODING 147
SWIDTH 500 0
DWIDTH 6 0
BBX 5 8 0 -2
BITMAP
60
40
F8
00
00
00
08
30
ENDCHAR
STARTCHAR uni0094
ENCODING 148
SWIDTH 500 0
DWIDTH 6 0
BBX 5 8 0 -2
BITMAP
60
40
D0
00
00
00
78
10
ENDCHAR
STARTCHAR uni0095
ENCODING 149
SWIDTH 500 0
DWIDTH 6 0
BBX 5 8 0 -2
BITMAP
60
40
F8
00
00
00
08
30
ENDCHAR
STARTCHAR uni0096
ENCODING 150
SWIDTH 500 0
DWIDTH 6 0
BBX 5 8 0 -2
BITMAP
60
40
D8
00
00
00
28
30
ENDCHAR
STARTCHAR uni0097
ENCODING 151
SWIDTH 500 0
DWIDTH 6 0
BBX 5 8 0 -2
BITMAP
60
40
F8
00
00
00
30
30
ENDCHAR
STARTCHAR uni0098
ENCODING 152
SWIDTH 500 0
DWIDTH 6 0
BBX 5 8 0 -2
BITMAP
60
40
F0
00
00
00
28
30
ENDCHAR
STARTCHAR uni0099
ENCODING 153
SWIDTH 500 0
DWIDTH 6 0
BBX 4 8 0 -2
BITMAP
60
40
F0
00
00
00
10
30
ENDCHAR
STARTCHAR uni009A
ENCODING 154
SWIDTH 500 0
DWIDTH 6 0
BBX 5 8 0 -2
BITMAP
60
40
F0
00
00
00
28
28
ENDCHAR
STARTCHAR uni009B
ENCODING 155
SWIDTH 500 0
DWIDTH 6 0
BBX 5 8 0 -2
BITMAP
60
40
F0
00
00
00
28
30
ENDCHAR
STARTCHAR uni009C
ENCODING 156
SWIDTH 500 0
DWIDTH 6 0
BBX 5 8 0 -2
BITMAP
60
40
F8
00
00
00
20
38
ENDCHAR
STARTCHAR uni009D
ENCODING 157
SWIDTH 500 0
DWIDTH 6 0
BBX 5 8 0 -2
BITMAP
60
40
F0
00
00
00
28
30
ENDCHAR
STARTCHAR uni009E
ENCODING 158
SWIDTH 500 0
DWIDTH 6 0
BBX 5 8 0 -2
BITMAP
60
40
F8
00
00
00
20
38
ENDCHAR
STARTCHAR uni009F
ENCODING 159
SWIDTH 500 0
DWIDTH 6 0
BBX 5 8 0 -2
BITMAP
60
40
F8
00
00
00
20
20
ENDCHAR
STARTCHAR uni00A0
ENCODING 160
SWIDTH 500 0
DWIDTH 6 0
BBX 5 8 0 -2
BITMAP
E0
A0
B0
00
00
00
28
30
ENDCHAR
STARTCHAR exclamdown
ENCODING 161
SWIDTH 500 0
DWIDTH 6 0
BBX 1 3 2 3
BITMAP
80
80
80
ENDCHAR
STARTCHAR cent
ENCODING 162
SWIDTH 500 0
DWIDTH 6 0
BBX 5 7 0 -1
BITMAP
70
A8
A0
00
00
00
20
ENDCHAR
STARTCHAR sterling
ENCODING 163
SWIDTH 500 0
DWIDTH 6 0
BBX 4 7 0 -1
BITMAP
40
F0
40
00
00
00
40
ENDCHAR
STARTCHAR currency
ENCODING 164
SWIDTH 500 0
DWIDTH 6 0
BBX 5 8 0 -2
BITMAP
E0
A0
B0
00
00
00
78
10
ENDCHAR
STARTCHAR yen
ENCODING 165
SWIDTH 500 0
DWIDTH 6 0
BBX 5 3 0 3
BITMAP
70
20
F8
ENDCHAR
STARTCHAR brokenbar
ENCODING 166
SWIDTH 500 0
DWIDTH 6 0
BBX 5 8 0 -2
BITMAP
E0
A0
B8
00
00
00
28
30
ENDCHAR
STARTCHAR section
ENCODING 167
SWIDTH 500 0
DWIDTH 6 0
BBX 3 3 1 3
BITMAP
E0
A0
E0
ENDCHAR
STARTCHAR dieresis
ENCODING 168
SWIDTH 500 0
DWIDTH 6 0
BBX 3 3 1 3
BITMAP
E0
A0
E0
ENDCHAR
STARTCHAR copyright
ENCODING 169
SWIDTH 500 0
DWIDTH 6 0
BBX 5 7 0 -1
BITMAP
B8
C8
C8
00
00
00
70
ENDCHAR
STARTCHAR ordfeminine
ENCODING 170
SWIDTH 500 0
DWIDTH 6 0
BBX 5 3 0 3
BITMAP
78
98
78
ENDCHAR
STARTCHAR guillemotleft
ENCODING 171
SWIDTH 500 0
DWIDTH 6 0
BBX 4 3 0 3
BITMAP
70
A0
70
ENDCHAR
STARTCHAR logicalnot
ENCODING 172
SWIDTH 500 0
DWIDTH 6 0
BBX 5 8 0 -2
BITMAP
E0
A0
B8
00
00
00
20
38
ENDCHAR
STARTCHAR uni00AD
ENCODING 173
SWIDTH 500 0
DWIDTH 6 0
BBX 5 8 0 -2
BITMAP
E0
A0
B0
00
00
00
28
30
ENDCHAR
STARTCHAR registered
ENCODING 174
SWIDTH 500 0
DWIDTH 6 0
BBX 5 8 0 -2
BITMAP
E0
A0
B8
00
00
00
20
38
ENDCHAR
STARTCHAR macron
ENCODING 175
SWIDTH 500 0
DWIDTH 6 0
BBX 5 8 0 -2
BITMAP
E0
A0
B8
00
00
00
20
20
ENDCHAR
STARTCHAR degree
ENCODING 176
SWIDTH 500 0
DWIDTH 6 0
BBX 3 1 1 5
BITMAP
E0
ENDCHAR
STARTCHAR plusminus
ENCODING 177
SWIDTH 500 0
DWIDTH 6 0
BBX 5 3 0 3
BITMAP
20
F8
20
ENDCHAR
STARTCHAR uni00B2
ENCODING 178
SWIDTH 500 0
DWIDTH 6 0
BBX 3 6 1 4
BITMAP
E0
00
00
00
80
E0
ENDCHAR
STARTCHAR uni00B3
ENCODING 179
SWIDTH 500 0
DWIDTH 6 0
BBX 3 6 1 4
BITMAP
E0
00
00
00
20
E0
ENDCHAR
STARTCHAR acute
ENCODING 180
SWIDTH 500 0
DWIDTH 6 0
BBX 5 8 0 -2
BITMAP
C0
A0
D0
00
00
00
78
10
ENDCHAR
STARTCHAR uni00B5
ENCODING 181
SWIDTH 500 0
DWIDTH 6 0
BBX 5 8 0 -2
BITMAP
48
48
48
00
00
00
40
80
ENDCHAR
STARTCHAR paragraph
ENCODING 182
SWIDTH 500 0
DWIDTH 6 0
BBX 5 3 0 3
BITMAP
F8
78
38
ENDCHAR
STARTCHAR periodcentered
ENCODING 183
SWIDTH 500 0
DWIDTH 6 0
BBX 2 2 1 4
BITMAP
C0
C0
ENDCHAR
STARTCHAR cedilla
ENCODING 184
SWIDTH 500 0
DWIDTH 6 0
BBX 5 8 0 -2
BITMAP
C0
A0
F0
00
00
00
28
30
ENDCHAR
STARTCHAR uni00B9
ENCODING 185
SWIDTH 500 0
DWIDTH 6 0
BBX 3 6 1 4
BITMAP
40
00
00
00
40
E0
ENDCHAR
STARTCHAR ordmasculine
ENCODING 186
SWIDTH 500 0
DWIDTH 6 0
BBX 5 3 0 3
BITMAP
88
88
70
ENDCHAR
STARTCHAR guillemotright
ENCODING 187
SWIDTH 500 0
DWIDTH 6 0
BBX 4 3 1 3
BITMAP
A0
50
A0
ENDCHAR
STARTCHAR onequarter
ENCODING 188
SWIDTH 500 0
DWIDTH 6 0
BBX 4 8 1 -2
BITMAP
E0
C0
A0
00
00
00
F0
20
ENDCHAR
STARTCHAR onehalf
ENCODING 189
SWIDTH 500 0
DWIDTH 6 0
BBX 4 8 1 -2
BITMAP
E0
C0
E0
00
00
00
60
70
ENDCHAR
STARTCHAR threequarters
ENCODING 190
SWIDTH 500 0
DWIDTH 6 0
BBX 5 8 0 -2
BITMAP
C0
A0
F8
00
00
00
20
38
ENDCHAR
STARTCHAR questiondown
ENCODING 191
SWIDTH 500 0
DWIDTH 6 0
BBX 2 3 1 3
BITMAP
40
40
80
ENDCHAR
STARTCHAR Agrave
ENCODING 192
SWIDTH 500 0
DWIDTH 6 0
BBX 5 7 0 3
BITMAP
60
00
00
00
70
50
F8
ENDCHAR
STARTCHAR Aacute
ENCODING 193
SWIDTH 500 0
DWIDTH 6 0
BBX 5 7 0 3
BITMAP
30
00
00
00
70
50
F8
ENDCHAR
STARTCHAR Acircumflex
ENCODING 194
SWIDTH 500 0
DWIDTH 6 0
BBX 5 7 0 3
BITMAP
70
00
00
00
70
50
F8
ENDCHAR
STARTCHAR Atilde
ENCODING 195
SWIDTH 500 0
DWIDTH 6 0
BBX 5 7 0 3
BITMAP
68
00
00
00
70
50
F8
ENDCHAR
STARTCHAR Adieresis
ENCODING 196
SWIDTH 500 0
DWIDTH 6 0
BBX 5 7 0 3
BITMAP
50
00
00
00
70
50
F8
ENDCHAR
STARTCHAR Aring
ENCODING 197
SWIDTH 500 0
DWIDTH 6 0
BBX 5 7 0 3
BITMAP
70
00
00
00
70
50
F8
ENDCHAR
STARTCHAR AE
ENCODING 198
SWIDTH 500 0
DWIDTH 6 0
BBX 4 3 0 3
BITMAP
A0
B0
E0
ENDCHAR
STARTCHAR Ccedilla
ENCODING 199
SWIDTH 500 0
DWIDTH 6 0
BBX 4 8 0 -2
BITMAP
80
80
80
00
00
00
30
70
ENDCHAR
STARTCHAR Egrave
ENCODING 200
SWIDTH 500 0
DWIDTH 6 0
BBX 4 7 0 3
BITMAP
40
00
00
00
80
F0
80
ENDCHAR
STARTCHAR Eacute
ENCODING 201
SWIDTH 500 0
DWIDTH 6 0
BBX 4 7 0 3
BITMAP
30
00
00
00
80
F0
80
ENDCHAR
STARTCHAR Ecircumflex
ENCODING 202
SWIDTH 500 0
DWIDTH 6 0
BBX 4 7 0 3
BITMAP
70
00
00
00
80
E0
80
ENDCHAR
STARTCHAR Edieresis
ENCODING 203
SWIDTH 500 0
DWIDTH 6 0
BBX 4 7 0 3
BITMAP
50
00
00
00
80
F0
80
ENDCHAR
STARTCHAR Igrave
ENCODING 204
SWIDTH 500 0
DWIDTH 6 0
BBX 2 7 1 3
BITMAP
C0
00
00
00
40
40
40
ENDCHAR
STARTCHAR Iacute
ENCODING 205
SWIDTH 500 0
DWIDTH 6 0
BBX 2 7 2 3
BITMAP
C0
00
00
00
80
80
80
ENDCHAR
STARTCHAR Icircumflex
ENCODING 206
SWIDTH 500 0
DWIDTH 6 0
BBX 3 7 1 3
BITMAP
E0
00
00
00
40
40
40
ENDCHAR
STARTCHAR Idieresis
ENCODING 207
SWIDTH 500 0
DWIDTH 6 0
BBX 3 7 1 3
BITMAP
A0
00
00
00
40
40
40
ENDCHAR
STARTCHAR Eth
ENCODING 208
SWIDTH 500 0
DWIDTH 6 0
BBX 5 8 0 -2
BITMAP
A0
A0
F0
00
00
00
28
30
ENDCHAR
STARTCHAR Ntilde
ENCODING 209
SWIDTH 500 0
DWIDTH 6 0
BBX 5 7 0 3
BITMAP
68
00
00
00
C8
A8
B8
ENDCHAR
STARTCHAR Ograve
ENCODING 210
SWIDTH 500 0
DWIDTH 6 0
BBX 5 7 0 3
BITMAP
60
00
00
00
88
88
88
ENDCHAR
STARTCHAR Oacute
ENCODING 211
SWIDTH 500 0
DWIDTH 6 0
BBX 5 7 0 3
BITMAP
30
00
00
00
88
88
88
ENDCHAR
STARTCHAR Ocircumflex
ENCODING 212
SWIDTH 500 0
DWIDTH 6 0
BBX 5 7 0 3
BITMAP
70
00
00
00
88
88
88
ENDCHAR
STARTCHAR Otilde
ENCODING 213
SWIDTH 500 0
DWIDTH 6 0
BBX 5 7 0 3
BITMAP
50
00
00
00
88
88
88
ENDCHAR
STARTCHAR Odieresis
ENCODING 214
SWIDTH 500 0
DWIDTH 6 0
BBX 5 7 0 3
BITMAP
50
00
00
00
88
88
88
ENDCHAR
STARTCHAR multiply
ENCODING 215
SWIDTH 500 0
DWIDTH 6 0
BBX 4 3 0 3
BITMAP
A0
B0
A0
ENDCHAR
STARTCHAR Oslash
ENCODING 216
SWIDTH 500 0
DWIDTH 6 0
BBX 5 11 0 -1
BITMAP
08
00
00
00
B8
A8
C8
00
00
00
80
ENDCHAR
STARTCHAR Ugrave
ENCODING 217
SWIDTH 500 0
DWIDTH 6 0
BBX 5 7 0 3
BITMAP
40
00
00
00
88
88
88
ENDCHAR
STARTCHAR Uacute
ENCODING 218
SWIDTH 500 0
DWIDTH 6 0
BBX 5 7 0 3
BITMAP
30
00
00
00
88
88
88
ENDCHAR
STARTCHAR Ucircumflex
ENCODING 219
SWIDTH 500 0
DWIDTH 6 0
BBX 5 7 0 3
BITMAP
20
00
00
00
88
88
88
ENDCHAR
STARTCHAR Udieresis
ENCODING 220
SWIDTH 500 0
DWIDTH 6 0
BBX 5 7 0 3
BITMAP
50
00
00
00
88
88
88
ENDCHAR
STARTCHAR Yacute
ENCODING 221
SWIDTH 500 0
DWIDTH 6 0
BBX 3 7 1 3
BITMAP
A0
00
00
00
A0
E0
40
ENDCHAR
STARTCHAR Thorn
ENCODING 222
SWIDTH 500 0
DWIDTH 6 0
BBX 5 8 0 -2
BITMAP
A0
A0
F8
00
00
00
20
38
ENDCHAR
STARTCHAR germandbls
ENCODING 223
SWIDTH 500 0
DWIDTH 6 0
BBX 4 7 0 -1
BITMAP
90
F0
90
00
00
00
80
ENDCHAR
STARTCHAR agrave
ENCODING 224
SWIDTH 500 0
DWIDTH 6 0
BBX 4 3 1 3
BITMAP
E0
10
F0
ENDCHAR
STARTCHAR aacute
ENCODING 225
SWIDTH 500 0
DWIDTH 6 0
BBX 4 3 1 3
BITMAP
E0
10
F0
ENDCHAR
STARTCHAR acircumflex
ENCODING 226
SWIDTH 500 0
DWIDTH 6 0
BBX 4 7 1 3
BITMAP
E0
00
00
00
E0
10
F0
ENDCHAR
STARTCHAR atilde
ENCODING 227
SWIDTH 500 0
DWIDTH 6 0
BBX 4 7 1 3
BITMAP
D0
00
00
00
E0
10
F0
ENDCHAR
STARTCHAR adieresis
ENCODING 228
SWIDTH 500 0
DWIDTH 6 0
BBX 4 3 1 3
BITMAP
E0
10
F0
ENDCHAR
STARTCHAR aring
ENCODING 229
SWIDTH 500 0
DWIDTH 6 0
BBX 4 7 1 3
BITMAP
E0
00
00
00
E0
10
F0
ENDCHAR
STARTCHAR ae
ENCODING 230
SWIDTH 500 0
DWIDTH 6 0
BBX 4 3 1 3
BITMAP
E0
50
F0
ENDCHAR
STARTCHAR ccedilla
ENCODING 231
SWIDTH 500 0
DWIDTH 6 0
BBX 5 8 0 -2
BITMAP
70
88
80
00
00
00
30
70
ENDCHAR
STARTCHAR egrave
ENCODING 232
SWIDTH 500 0
DWIDTH 6 0
BBX 5 3 0 3
BITMAP
70
88
F8
ENDCHAR
STARTCHAR eacute
ENCODING 233
SWIDTH 500 0
DWIDTH 6 0
BBX 5 3 0 3
BITMAP
70
88
F8
ENDCHAR
STARTCHAR ecircumflex
ENCODING 234
SWIDTH 500 0
DWIDTH 6 0
BBX 5 7 0 3
BITMAP
70
00
00
00
70
88
F8
ENDCHAR
STARTCHAR edieresis
ENCODING 235
SWIDTH 500 0
DWIDTH 6 0
BBX 5 3 0 3
BITMAP
70
88
F8
ENDCHAR
STARTCHAR igrave
ENCODING 236
SWIDTH 500 0
DWIDTH 6 0
BBX 2 3 1 3
BITMAP
C0
40
40
ENDCHAR
STARTCHAR iacute
ENCODING 237
SWIDTH 500 0
DWIDTH 6 0
BBX 2 3 1 3
BITMAP
C0
40
40
ENDCHAR
STARTCHAR icircumflex
ENCODING 238
SWIDTH 500 0
DWIDTH 6 0
BBX 3 7 1 3
BITMAP
E0
00
00
00
C0
40
40
ENDCHAR
STARTCHAR idieresis
ENCODING 239
SWIDTH 500 0
DWIDTH 6 0
BBX 2 3 1 3
BITMAP
C0
40
40
ENDCHAR
STARTCHAR eth
ENCODING 240
SWIDTH 500 0
DWIDTH 6 0
BBX 5 8 0 -2
BITMAP
C0
80
B0
00
00
00
28
30
ENDCHAR
STARTCHAR ntilde
ENCODING 241
SWIDTH 500 0
DWIDTH 6 0
BBX 5 7 0 3
BITMAP
50
00
00
00
F0
C8
88
ENDCHAR
STARTCHAR ograve
ENCODING 242
SWIDTH 500 0
DWIDTH 6 0
BBX 5 3 0 3
BITMAP
70
88
88
ENDCHAR
STARTCHAR oacute
ENCODING 243
SWIDTH 500 0
DWIDTH 6 0
BBX 5 3 0 3
BITMAP
70
88
88
ENDCHAR
STARTCHAR ocircumflex
ENCODING 244
SWIDTH 500 0
DWIDTH 6 0
BBX 5 7 0 3
BITMAP
70
00
00
00
70
88
88
ENDCHAR
STARTCHAR otilde
ENCODING 245
SWIDTH 500 0
DWIDTH 6 0
BBX 5 7 0 3
BITMAP
50
00
00
00
70
88
88
ENDCHAR
STARTCHAR odieresis
ENCODING 246
SWIDTH 500 0
DWIDTH 6 0
BBX 5 3 0 3
BITMAP
70
88
88
ENDCHAR
STARTCHAR divide
ENCODING 247
SWIDTH 500 0
DWIDTH 6 0
BBX 5 3 0 3
BITMAP
70
A8
B8
ENDCHAR
STARTCHAR oslash
ENCODING 248
SWIDTH 500 0
DWIDTH 6 0
BBX 5 7 0 -1
BITMAP
70
B8
A8
00
00
00
80
ENDCHAR
STARTCHAR ugrave
ENCODING 249
SWIDTH 500 0
DWIDTH 6 0
BBX 4 3 0 3
BITMAP
90
90
90
ENDCHAR
STARTCHAR uacute
ENCODING 250
SWIDTH 500 0
DWIDTH 6 0
BBX 4 3 0 3
BITMAP
90
90
90
ENDCHAR
STARTCHAR ucircumflex
ENCODING 251
SWIDTH 500 0
DWIDTH 6 0
BBX 4 7 0 3
BITMAP
70
00
00
00
90
90
90
ENDCHAR
STARTCHAR udieresis
ENCODING 252
SWIDTH 500 0
DWIDTH 6 0
BBX 4 3 0 3
BITMAP
90
90
90
ENDCHAR
STARTCHAR yacute
ENCODING 253
SWIDTH 500 0
DWIDTH 6 0
BBX 4 8 0 -2
BITMAP
90
90
B0
00
00
00
90
70
ENDCHAR
STARTCHAR thorn
ENCODING 254
SWIDTH 500 0
DWIDTH 6 0
BBX 5 8 0 -2
BITMAP
C0
80
B8
00
00
00
20
38
ENDCHAR
STARTCHAR ydieresis
ENCODING 255
SWIDTH 500 0
DWIDTH 6 0
BBX 5 3 0 3
BITMAP
88
88
88
ENDCHAR
STARTCHAR NameMe.320
ENCODING 1025
SWIDTH 500 0
DWIDTH 6 0
BBX 4 7 0 3
BITMAP
50
00
00
00
80
F0
80
ENDCHAR
STARTCHAR afii10034
ENCODING 1040
SWIDTH 500 0
DWIDTH 6 0
BBX 5 3 0 3
BITMAP
48
88
F8
ENDCHAR
STARTCHAR NameMe.257
ENCODING 1041
SWIDTH 500 0
DWIDTH 6 0
BBX 5 3 0 3
BITMAP
80
F0
88
ENDCHAR
STARTCHAR NameMe.258
ENCODING 1042
SWIDTH 500 0
DWIDTH 6 0
BBX 5 3 0 3
BITMAP
90
F0
88
ENDCHAR
STARTCHAR NameMe.259
ENCODING 1043
SWIDTH 500 0
DWIDTH 6 0
BBX 1 3 0 3
BITMAP
80
80
80
ENDCHAR
STARTCHAR NameMe.260
ENCODING 1044
SWIDTH 500 0
DWIDTH 6 0
BBX 5 7 0 -1
BITMAP
50
50
50
00
00
00
88
ENDCHAR
STARTCHAR NameMe.261
ENCODING 1045
SWIDTH 500 0
DWIDTH 6 0
BBX 5 3 0 3
BITMAP
80
F8
80
ENDCHAR
STARTCHAR NameMe.262
ENCODING 1046
SWIDTH 500 0
DWIDTH 6 0
BBX 3 3 1 3
BITMAP
E0
E0
E0
ENDCHAR
STARTCHAR NameMe.263
ENCODING 1047
SWIDTH 500 0
DWIDTH 6 0
BBX 3 3 2 3
BITMAP
20
C0
20
ENDCHAR
STARTCHAR NameMe.264
ENCODING 1048
SWIDTH 500 0
DWIDTH 6 0
BBX 5 3 0 3
BITMAP
B8
A8
C8
ENDCHAR
STARTCHAR NameMe.265
ENCODING 1049
SWIDTH 500 0
DWIDTH 6 0
BBX 5 7 0 3
BITMAP
30
00
00
00
B8
A8
C8
ENDCHAR
STARTCHAR NameMe.266
ENCODING 1050
SWIDTH 500 0
DWIDTH 6 0
BBX 4 3 0 3
BITMAP
B0
E0
B0
ENDCHAR
STARTCHAR NameMe.267
ENCODING 1051
SWIDTH 500 0
DWIDTH 6 0
BBX 5 3 0 3
BITMAP
48
88
88
ENDCHAR
STARTCHAR NameMe.268
ENCODING 1052
SWIDTH 500 0
DWIDTH 6 0
BBX 5 3 0 3
BITMAP
F8
A8
A8
ENDCHAR
STARTCHAR NameMe.269
ENCODING 1053
SWIDTH 500 0
DWIDTH 6 0
BBX 5 3 0 3
BITMAP
88
88
F8
ENDCHAR
STARTCHAR NameMe.270
ENCODING 1054
SWIDTH 500 0
DWIDTH 6 0
BBX 5 3 0 3
BITMAP
88
88
88
ENDCHAR
STARTCHAR NameMe.271
ENCODING 1055
SWIDTH 500 0
DWIDTH 6 0
BBX 5 3 0 3
BITMAP
88
88
88
ENDCHAR
STARTCHAR NameMe.272
ENCODING 1056
SWIDTH 500 0
DWIDTH 6 0
BBX 5 3 0 3
BITMAP
88
88
F0
ENDCHAR
STARTCHAR NameMe.273
ENCODING 1057
SWIDTH 500 0
DWIDTH 6 0
BBX 1 3 0 3
BITMAP
80
80
80
ENDCHAR
STARTCHAR NameMe.274
ENCODING 1058
SWIDTH 500 0
DWIDTH 6 0
BBX 1 3 2 3
BITMAP
80
80
80
ENDCHAR
STARTCHAR NameMe.275
ENCODING 1059
SWIDTH 500 0
DWIDTH 6 0
BBX 5 3 0 3
BITMAP
88
78
08
ENDCHAR
STARTCHAR NameMe.276
ENCODING 1060
SWIDTH 500 0
DWIDTH 6 0
BBX 5 3 0 3
BITMAP
A8
A8
A8
ENDCHAR
STARTCHAR NameMe.277
ENCODING 1061
SWIDTH 500 0
DWIDTH 6 0
BBX 3 3 1 3
BITMAP
E0
40
E0
ENDCHAR
STARTCHAR NameMe.278
ENCODING 1062
SWIDTH 500 0
DWIDTH 6 0
BBX 5 7 0 -1
BITMAP
90
90
90
00
00
00
08
ENDCHAR
STARTCHAR NameMe.279
ENCODING 1063
SWIDTH 500 0
DWIDTH 6 0
BBX 5 3 0 3
BITMAP
88
F8
08
ENDCHAR
STARTCHAR NameMe.280
ENCODING 1064
SWIDTH 500 0
DWIDTH 6 0
BBX 5 3 0 3
BITMAP
A8
A8
A8
ENDCHAR
STARTCHAR NameMe.281
ENCODING 1065
SWIDTH 500 0
DWIDTH 6 0
BBX 5 7 0 -1
BITMAP
A8
A8
A8
00
00
00
08
ENDCHAR
STARTCHAR NameMe.282
ENCODING 1066
SWIDTH 500 0
DWIDTH 6 0
BBX 4 3 1 3
BITMAP
80
E0
90
ENDCHAR
STARTCHAR NameMe.283
ENCODING 1067
SWIDTH 500 0
DWIDTH 6 0
BBX 5 3 0 3
BITMAP
88
E8
B8
ENDCHAR
STARTCHAR NameMe.284
ENCODING 1068
SWIDTH 500 0
DWIDTH 6 0
BBX 5 3 0 3
BITMAP
80
F0
88
ENDCHAR
STARTCHAR NameMe.285
ENCODING 1069
SWIDTH 500 0
DWIDTH 6 0
BBX 4 3 1 3
BITMAP
10
F0
10
ENDCHAR
STARTCHAR NameMe.286
ENCODING 1070
SWIDTH 500 0
DWIDTH 6 0
BBX 5 3 0 3
BITMAP
C8
C8
C8
ENDCHAR
STARTCHAR NameMe.287
ENCODING 1071
SWIDTH 500 0
DWIDTH 6 0
BBX 5 3 0 3
BITMAP
88
78
48
ENDCHAR
STARTCHAR NameMe.288
ENCODING 1072
SWIDTH 500 0
DWIDTH 6 0
BBX 3 3 1 3
BITMAP
E0
20
E0
ENDCHAR
STARTCHAR NameMe.289
ENCODING 1073
SWIDTH 500 0
DWIDTH 6 0
BBX 5 3 0 3
BITMAP
30
70
88
ENDCHAR
STARTCHAR NameMe.290
ENCODING 1074
SWIDTH 500 0
DWIDTH 6 0
BBX 5 3 0 3
BITMAP
A0
F0
88
ENDCHAR
STARTCHAR NameMe.291
ENCODING 1075
SWIDTH 500 0
DWIDTH 6 0
BBX 4 3 1 3
BITMAP
E0
10
E0
ENDCHAR
STARTCHAR NameMe.292
ENCODING 1076
SWIDTH 500 0
DWIDTH 6 0
BBX 5 3 0 3
BITMAP
08
78
88
ENDCHAR
STARTCHAR NameMe.293
ENCODING 1077
SWIDTH 500 0
DWIDTH 6 0
BBX 5 3 0 3
BITMAP
70
88
F8
ENDCHAR
STARTCHAR NameMe.294
ENCODING 1078
SWIDTH 500 0
DWIDTH 6 0
BBX 5 3 0 3
BITMAP
A8
70
70
ENDCHAR
STARTCHAR NameMe.295
ENCODING 1079
SWIDTH 500 0
DWIDTH 6 0
BBX 5 3 0 3
BITMAP
70
88
30
ENDCHAR
STARTCHAR NameMe.296
ENCODING 1080
SWIDTH 500 0
DWIDTH 6 0
BBX 4 3 0 3
BITMAP
90
90
90
ENDCHAR
STARTCHAR NameMe.297
ENCODING 1081
SWIDTH 500 0
DWIDTH 6 0
BBX 4 3 0 3
BITMAP
90
90
90
ENDCHAR
STARTCHAR NameMe.298
ENCODING 1082
SWIDTH 500 0
DWIDTH 6 0
BBX 5 3 0 3
BITMAP
88
B0
E0
ENDCHAR
STARTCHAR NameMe.299
ENCODING 1083
SWIDTH 500 0
DWIDTH 6 0
BBX 4 3 1 3
BITMAP
70
90
90
ENDCHAR
STARTCHAR NameMe.300
ENCODING 1084
SWIDTH 500 0
DWIDTH 6 0
BBX 5 3 0 3
BITMAP
88
D8
F8
ENDCHAR
STARTCHAR NameMe.301
ENCODING 1085
SWIDTH 500 0
DWIDTH 6 0
BBX 5 3 0 3
BITMAP
88
88
F8
ENDCHAR
STARTCHAR NameMe.302
ENCODING 1086
SWIDTH 500 0
DWIDTH 6 0
BBX 5 3 0 3
BITMAP
70
88
88
ENDCHAR
STARTCHAR NameMe.303
ENCODING 1087
SWIDTH 500 0
DWIDTH 6 0
BBX 4 3 0 3
BITMAP
F0
D0
90
ENDCHAR
STARTCHAR NameMe.304
ENCODING 1088
SWIDTH 500 0
DWIDTH 6 0
BBX 5 7 0 -1
BITMAP
F0
88
88
00
00
00
80
ENDCHAR
STARTCHAR NameMe.305
ENCODING 1089
SWIDTH 500 0
DWIDTH 6 0
BBX 5 3 0 3
BITMAP
70
88
80
ENDCHAR
STARTCHAR NameMe.306
ENCODING 1090
SWIDTH 500 0
DWIDTH 6 0
BBX 5 3 0 3
BITMAP
F8
20
20
ENDCHAR
STARTCHAR NameMe.307
ENCODING 1091
SWIDTH 500 0
DWIDTH 6 0
BBX 5 7 0 -1
BITMAP
88
88
88
00
00
00
F0
ENDCHAR
STARTCHAR NameMe.308
ENCODING 1092
SWIDTH 500 0
DWIDTH 6 0
BBX 5 3 0 3
BITMAP
20
70
A8
ENDCHAR
STARTCHAR NameMe.309
ENCODING 1093
SWIDTH 500 0
DWIDTH 6 0
BBX 5 3 0 3
BITMAP
88
70
20
ENDCHAR
STARTCHAR NameMe.310
ENCODING 1094
SWIDTH 500 0
DWIDTH 6 0
BBX 5 7 0 -1
BITMAP
90
90
90
00
00
00
08
ENDCHAR
STARTCHAR NameMe.311
ENCODING 1095
SWIDTH 500 0
DWIDTH 6 0
BBX 5 3 0 3
BITMAP
88
88
F8
ENDCHAR
STARTCHAR NameMe.312
ENCODING 1096
SWIDTH 500 0
DWIDTH 6 0
BBX 5 3 0 3
BITMAP
A8
A8
A8
ENDCHAR
STARTCHAR NameMe.313
ENCODING 1097
SWIDTH 500 0
DWIDTH 6 0
BBX 5 7 0 -1
BITMAP
A8
A8
A8
00
00
00
08
ENDCHAR
STARTCHAR NameMe.314
ENCODING 1098
SWIDTH 500 0
DWIDTH 6 0
BBX 4 3 0 3
BITMAP
C0
40
70
ENDCHAR
STARTCHAR NameMe.315
ENCODING 1099
SWIDTH 500 0
DWIDTH 6 0
BBX 5 3 0 3
BITMAP
88
88
E8
ENDCHAR
STARTCHAR NameMe.316
ENCODING 1100
SWIDTH 500 0
DWIDTH 6 0
BBX 4 3 0 3
BITMAP
80
80
F0
ENDCHAR
STARTCHAR NameMe.317
ENCODING 1101
SWIDTH 500 0
DWIDTH 6 0
BBX 5 3 0 3
BITMAP
70
88
38
ENDCHAR
STARTCHAR NameMe.318
ENCODING 1102
SWIDTH 500 0
DWIDTH 6 0
BBX 5 3 0 3
BITMAP
B0
C8
C8
ENDCHAR
STARTCHAR NameMe.319
ENCODING 1103
SWIDTH 500 0
DWIDTH 6 0
BBX 5 3 0 3
BITMAP
78
88
78
ENDCHAR
STARTCHAR NameMe.321
ENCODING 1105
SWIDTH 500 0
DWIDTH 6 0
BBX 5 3 0 3
BITMAP
70
88
F8
ENDCHAR
STARTCHAR .notdef
ENCODING -1
SWIDTH 500 0
DWIDTH 6 0
BBX 4 9 0 0
BITMAP
F0
90
90
90
90
90
90
90
F0
ENDCHAR
ENDFONT
